<svg width="40" height="40" viewBox="0 0 40 40" xmlns="http://www.w3.org/2000/svg"><title>E2A02E54-F0F7-4A64-ACB0-ED38E72C7ECC@3x</title><desc>Created with sketchtool.</desc><g fill-rule="nonzero" fill="none"><path d="M38.756 26.956c.804-2.167 1.244-4.51 1.244-6.956 0-2.446-.44-4.79-1.244-6.956l-18.756-1.739-18.756 1.739c-.804 2.167-1.244 4.51-1.244 6.956 0 2.446.44 4.79 1.244 6.956l18.756 1.739 18.756-1.739z" id="Shape" fill="#fff"/><g fill="#D80027"><path d="M20 40c8.599 0 15.93-5.428 18.756-13.044h-37.512c2.826 7.616 10.157 13.044 18.756 13.044zM20 0c-8.599 0-15.93 5.428-18.756 13.044h37.512c-2.826-7.616-10.157-13.044-18.756-13.044z"/></g></g></svg>