<svg width="40" height="40" viewBox="0 0 40 40" xmlns="http://www.w3.org/2000/svg"><title>E1D939EE-C2B2-46A9-9B6F-0CFA5069DF54@3x</title><desc>Created with sketchtool.</desc><g fill-rule="nonzero" fill="none"><path d="M40 20c0-2.446-.44-4.79-1.244-6.956l-18.756-.87-18.756.87c-.804 2.167-1.244 4.51-1.244 6.957 0 2.446.44 4.79 1.244 6.956l18.756.87 18.756-.87c.804-2.167 1.244-4.51 1.244-6.957z" id="Shape" fill="#fff"/><path d="M20 40c8.599 0 15.93-5.428 18.756-13.044h-37.512c2.826 7.616 10.157 13.044 18.756 13.044z" id="Shape" fill="#0052B4"/><path d="M1.244 13.044h37.512c-2.826-7.616-10.157-13.044-18.756-13.044s-15.93 5.428-18.756 13.044z" id="Shape" fill="#D80027"/><g id="Group" fill="#338AF3"><path id="Shape" d="M25.218 13.914h-3.478l.58-4.348 2.319-1.739 2.319 1.739v3.478zM14.783 13.914h3.478l-.58-4.348-2.319-1.739-2.319 1.739v3.478z"/></g><path id="Shape" fill="#0052B4" d="M22.319 13.913h-4.638v-4.348l2.319-1.739 2.319 1.739z"/><path d="M13.044 13.044v9.565c0 2.278 1.1 4.303 2.797 5.573l1.217-.305 1.536 1.545c.454.094.924.143 1.406.143.479 0 .947-.049 1.399-.141l1.754-1.46 1.007.215c1.696-1.27 2.797-3.293 2.797-5.57v-9.565h-13.913z" id="Shape" fill="#F0F0F0"/><g fill="#D80027"><path d="M13.044 13.044h2.783v2.783h-2.783zM18.609 13.044h2.783v2.783h-2.783zM24.174 13.044h2.783v2.783h-2.783zM15.826 15.826h2.783v2.783h-2.783zM21.392 15.826h2.783v2.783h-2.783zM13.044 18.608h2.783v2.783h-2.783zM15.826 21.391h2.783v2.783h-2.783zM18.609 18.608h2.783v2.783h-2.783zM24.174 18.608h2.783v2.783h-2.783zM21.392 21.391h2.783v2.783h-2.783zM18.609 24.173h2.783v2.783h-2.783z"/><path d="M15.826 24.174h-2.603c.239 1.034.708 1.981 1.352 2.783h1.251v-2.783zM24.174 26.956h1.251c.644-.802 1.113-1.748 1.352-2.783h-2.603v2.783zM15.826 26.956v1.214c.809.609 1.755 1.046 2.783 1.255v-2.469h-2.783zM21.392 26.956v2.469c1.028-.209 1.973-.646 2.783-1.255v-1.214h-2.783z"/></g></g></svg>