<svg width="40" height="40" viewBox="0 0 40 40" xmlns="http://www.w3.org/2000/svg"><title>CF68A4E3-2C6D-46A7-B3E0-6B6D68EC1046@3x</title><desc>Created with sketchtool.</desc><g fill-rule="nonzero" fill="none"><path d="M1.244 26.956c2.826 7.616 10.157 13.044 18.756 13.044s15.93-5.428 18.756-13.044l-18.756-1.739-18.756 1.739z" id="Shape" fill="#FFDA44"/><path d="M20 0c-8.599 0-15.93 5.428-18.756 13.044l18.756 1.739 18.756-1.739c-2.826-7.616-10.157-13.043-18.756-13.043z" id="Shape" fill="#000"/><path d="M1.244 13.044c-.804 2.167-1.244 4.51-1.244 6.956 0 2.446.44 4.79 1.244 6.956h37.512c.804-2.167 1.244-4.51 1.244-6.956 0-2.446-.44-4.79-1.244-6.956h-37.512z" fill="#D80027"/></g></svg>