<?xml version="1.0" encoding="UTF-8"?>
<svg width="40px" height="40px" viewBox="0 0 40 40" version="1.1" xmlns="http://www.w3.org/2000/svg" xmlns:xlink="http://www.w3.org/1999/xlink">
    <!-- Generator: Sketch 49.3 (51167) - http://www.bohemiancoding.com/sketch -->
    <title>poland-flag-circle@3x</title>
    <desc>Created with Sketch.</desc>
    <defs></defs>
    <g id="Page-1" stroke="none" stroke-width="1" fill="none" fill-rule="evenodd">
        <g id="poland-flag-circle" fill-rule="nonzero">
            <circle id="Oval" fill="#FFFFFF" cx="20" cy="20" r="20"></circle>
            <path d="M38.7560156,13.0435156 L17.3913281,13.0435156 L17.3913281,7.82609375 L6.95648438,7.82609375 L6.95648438,13.0435156 L1.24398438,13.0435156 C0.440078125,15.2100781 0,17.5535938 0,20 C0,22.4464062 0.440078125,24.7898437 1.24398437,26.9564844 L20,28.695625 L38.7560156,26.9564844 C39.5599219,24.7898437 40,22.4464063 40,20 C40,17.5535937 39.5599219,15.2100781 38.7560156,13.0435156 Z" id="Shape" fill="#0052B4"></path>
            <path d="M20,40 C28.5992969,40 35.9301563,34.5725 38.7560156,26.9564844 L1.24398438,26.9564844 C4.06984375,34.5725 11.4007031,40 20,40 Z" id="Shape" fill="#D80027"></path>
            <path d="M6.95648437,13.0435156 L6.95648437,14.7825781 C6.95648437,18.7764063 12.1739063,20.0000781 12.1739063,20.0000781 C12.1739063,20.0000781 17.3913281,18.7764063 17.3913281,14.7825781 L17.3913281,13.0435156 L15.6521875,14.7826563 L12.1739063,12.1739844 L8.695625,14.7826563 L6.95648437,13.0435156 Z" id="Shape" fill="#FFFFFF"></path>
        </g>
    </g>
</svg>